<?xml version="1.0" encoding="UTF-8" standalone="no"?>
<!DOCTYPE svg PUBLIC "-//W3C//DTD SVG 1.1//EN" "http://www.w3.org/Graphics/SVG/1.1/DTD/svg11.dtd">
<svg xmlns:xlink="http://www.w3.org/1999/xlink" height="170.71162790697673mm" version="1.1" viewBox="0 0 578 578" width="170.71162790697673mm" x="0mm" y="0mm" xmlns="http://www.w3.org/2000/svg">
  <rect height="2312" style="fill:rgb(255,255,255);stroke:none;" width="2312" x="-1156" y="-1156"/>
  <line style="fill:none;stroke:rgb(255,127,0);stroke-width:2;stroke-miterlimit:2;stroke-dasharray:2;" x1="289" x2="178" y1="289" y2="243"/>
  <line style="fill:none;stroke:rgb(255,127,0);stroke-width:2;stroke-miterlimit:2;stroke-dasharray:2;" x1="289" x2="166" y1="289" y2="339"/>
  <line style="fill:none;stroke:rgb(255,127,0);stroke-width:2;stroke-miterlimit:2;stroke-dasharray:2;" x1="289" x2="168" y1="289" y2="208"/>
  <line style="fill:none;stroke:rgb(255,127,0);stroke-width:2;stroke-miterlimit:2;stroke-dasharray:2;" x1="289" x2="145" y1="289" y2="221"/>
  <line style="fill:none;stroke:rgb(255,127,0);stroke-width:2;stroke-miterlimit:2;stroke-dasharray:2;" x1="289" x2="195" y1="289" y2="437"/>
  <line style="fill:none;stroke:rgb(255,127,0);stroke-width:2;stroke-miterlimit:2;stroke-dasharray:2;" x1="289" x2="132" y1="289" y2="403"/>
  <line style="fill:none;stroke:rgb(255,127,0);stroke-width:2;stroke-miterlimit:2;stroke-dasharray:2;" x1="289" x2="64" y1="289" y2="254"/>
  <ellipse cx="289" cy="289" rx="80" ry="80" style="fill:rgb(255,255,255);stroke:none;"/>
  <path d="M289.0,209.0 C244.81722001353654,209.0 209.0,244.81722001353654 209.0,289.0 C209.0,333.18277998646346 244.8172200135365,369.0 289.0,369.0 L289.0,289.0 Z" style="fill:rgb(192,192,192);stroke:none;"/>
  <ellipse cx="289" cy="289" rx="80" ry="80" style="fill:none;stroke:rgb(0,0,0);stroke-width:5;stroke-miterlimit:10;stroke-linecap:square;"/>
  <g transform="matrix(0.3828062145102432 -0.9238286649224182 0.9238286649224182 0.3828062145102432 289 289)">
    <rect height="12" style="fill:rgb(255,255,255);stroke:none;" width="15" x="-7" y="-129"/>
  </g>
  <g transform="matrix(0.4396875782701111 -0.8981507855115225 0.8981507855115225 0.4396875782701111 289 289)">
    <rect height="12" style="fill:rgb(255,255,255);stroke:none;" width="16" x="-7" y="-129"/>
  </g>
  <g transform="matrix(0.49485642792851936 -0.8689747497699953 0.8689747497699953 0.49485642792851936 289 289)">
    <rect height="12" style="fill:rgb(255,255,255);stroke:none;" width="15" x="-7" y="-129"/>
  </g>
  <g transform="matrix(0.5446207968179285 -0.8386824116871682 0.8386824116871682 0.5446207968179285 289 289)">
    <rect height="12" style="fill:rgb(255,255,255);stroke:none;" width="15" x="-7" y="-129"/>
  </g>
  <g transform="matrix(0.5891857168948309 -0.8079976429465152 0.8079976429465152 0.5891857168948309 289 289)">
    <rect height="12" style="fill:rgb(255,255,255);stroke:none;" width="14" x="-6" y="-129"/>
  </g>
  <g transform="matrix(0.6320257444473398 -0.7749473907019662 0.7749473907019662 0.6320257444473398 289 289)">
    <rect height="12" style="fill:rgb(255,255,255);stroke:none;" width="15" x="-7" y="-129"/>
  </g>
  <g transform="matrix(0.6760817078728866 -0.7368266582308765 0.7368266582308765 0.6760817078728866 289 289)">
    <rect height="12" style="fill:rgb(255,255,255);stroke:none;" width="15" x="-7" y="-129"/>
  </g>
  <g transform="matrix(0.7178429700977981 -0.696205049020166 0.696205049020166 0.7178429700977981 289 289)">
    <rect height="12" style="fill:rgb(255,255,255);stroke:none;" width="15" x="-7" y="-129"/>
  </g>
  <g transform="matrix(0.7598731050223839 -0.6500714301241373 0.6500714301241373 0.7598731050223839 289 289)">
    <rect height="12" style="fill:rgb(255,255,255);stroke:none;" width="16" x="-7" y="-129"/>
  </g>
  <g transform="matrix(0.79894365347698 -0.6014058850467421 0.6014058850467421 0.79894365347698 289 289)">
    <rect height="12" style="fill:rgb(255,255,255);stroke:none;" width="15" x="-7" y="-129"/>
  </g>
  <g transform="matrix(0.8326102726139982 -0.5538593087938881 0.5538593087938881 0.8326102726139982 289 289)">
    <rect height="12" style="fill:rgb(255,255,255);stroke:none;" width="15" x="-7" y="-129"/>
  </g>
  <g transform="matrix(0.8634509141066283 -0.5044328686043644 0.5044328686043644 0.8634509141066283 289 289)">
    <rect height="12" style="fill:rgb(255,255,255);stroke:none;" width="15" x="-7" y="-129"/>
  </g>
  <g transform="matrix(0.8913609011735917 -0.4532943236562781 0.4532943236562781 0.8913609011735917 289 289)">
    <rect height="12" style="fill:rgb(255,255,255);stroke:none;" width="15" x="-7" y="-129"/>
  </g>
  <g transform="matrix(0.916245504021009 -0.4006172442135849 0.4006172442135849 0.916245504021009 289 289)">
    <rect height="12" style="fill:rgb(255,255,255);stroke:none;" width="15" x="-7" y="-129"/>
  </g>
  <g transform="matrix(0.9380202613665143 -0.3465804225081046 0.3465804225081046 0.9380202613665143 289 289)">
    <rect height="12" style="fill:rgb(255,255,255);stroke:none;" width="15" x="-7" y="-129"/>
  </g>
  <g transform="matrix(0.9578126332970366 -0.28739338805302495 0.28739338805302495 0.9578126332970366 289 289)">
    <rect height="12" style="fill:rgb(255,255,255);stroke:none;" width="16" x="-7" y="-129"/>
  </g>
  <g transform="matrix(0.9738744753646712 -0.2270870014624052 0.2270870014624052 0.9738744753646712 289 289)">
    <rect height="12" style="fill:rgb(255,255,255);stroke:none;" width="15" x="-7" y="-129"/>
  </g>
  <g transform="matrix(0.9854460140933176 -0.16998868582230126 0.16998868582230126 0.9854460140933176 289 289)">
    <rect height="12" style="fill:rgb(255,255,255);stroke:none;" width="15" x="-7" y="-129"/>
  </g>
  <g transform="matrix(0.9931977668372313 -0.11643966656400603 0.11643966656400603 0.9931977668372313 289 289)">
    <rect height="12" style="fill:rgb(255,255,255);stroke:none;" width="14" x="-6" y="-129"/>
  </g>
  <g transform="matrix(0.9977733120628848 -0.06669645968911081 0.06669645968911081 0.9977733120628848 289 289)">
    <rect height="12" style="fill:rgb(255,255,255);stroke:none;" width="14" x="-6" y="-129"/>
  </g>
  <g transform="matrix(0.9999202145236579 -0.01263188770382665 0.01263188770382665 0.9999202145236579 289 289)">
    <rect height="12" style="fill:rgb(255,255,255);stroke:none;" width="15" x="-7" y="-129"/>
  </g>
  <g transform="matrix(0.9989589004664889 0.04561924132187543 -0.04561924132187543 0.9989589004664889 289 289)">
    <rect height="12" style="fill:rgb(255,255,255);stroke:none;" width="15" x="-7" y="-129"/>
  </g>
  <g transform="matrix(0.994607001866665 0.10371553325227621 -0.10371553325227621 0.994607001866665 289 289)">
    <rect height="12" style="fill:rgb(255,255,255);stroke:none;" width="15" x="-7" y="-129"/>
  </g>
  <g transform="matrix(0.986879289582243 0.16145980240805216 -0.16145980240805216 0.986879289582243 289 289)">
    <rect height="12" style="fill:rgb(255,255,255);stroke:none;" width="15" x="-7" y="-129"/>
  </g>
  <g transform="matrix(0.9784518735932565 0.2064750131658699 -0.2064750131658699 0.9784518735932565 289 289)">
    <rect height="12" style="fill:rgb(255,255,255);stroke:none;" width="12" x="-5" y="-129"/>
  </g>
  <g transform="matrix(0.967972261900924 0.25105716518436383 -0.25105716518436383 0.967972261900924 289 289)">
    <rect height="12" style="fill:rgb(255,255,255);stroke:none;" width="15" x="-7" y="-129"/>
  </g>
  <g transform="matrix(0.9504266961989524 0.3109487018019922 -0.3109487018019922 0.9504266961989524 289 289)">
    <rect height="12" style="fill:rgb(255,255,255);stroke:none;" width="16" x="-7" y="-129"/>
  </g>
  <g transform="matrix(0.9276376511304864 0.37348144291934254 -0.37348144291934254 0.9276376511304864 289 289)">
    <rect height="12" style="fill:rgb(255,255,255);stroke:none;" width="16" x="-7" y="-129"/>
  </g>
  <g transform="matrix(0.9025340172885196 0.43061856397169673 -0.43061856397169673 0.9025340172885196 289 289)">
    <rect height="12" style="fill:rgb(255,255,255);stroke:none;" width="15" x="-7" y="-129"/>
  </g>
  <g transform="matrix(0.8779218648218619 0.4788039257020609 -0.4788039257020609 0.8779218648218619 289 289)">
    <rect height="12" style="fill:rgb(255,255,255);stroke:none;" width="14" x="-6" y="-129"/>
  </g>
  <g transform="matrix(0.8507395195989819 0.5255875472197696 -0.5255875472197696 0.8507395195989819 289 289)">
    <rect height="12" style="fill:rgb(255,255,255);stroke:none;" width="15" x="-7" y="-129"/>
  </g>
  <g transform="matrix(0.818688521384371 0.5742378470228798 -0.5742378470228798 0.818688521384371 289 289)">
    <rect height="12" style="fill:rgb(255,255,255);stroke:none;" width="15" x="-7" y="-129"/>
  </g>
  <g transform="matrix(0.3828062145102432 -0.9238286649224182 0.9238286649224182 0.3828062145102432 289 289)">
    <text style="fill:rgb(128,128,128);stroke:none;font-family:&quot;Arial&quot;;font-size:9px;" x="-3" y="-120">D</text>
  </g>
  <g transform="matrix(0.4396875782701111 -0.8981507855115225 0.8981507855115225 0.4396875782701111 289 289)">
    <text style="fill:rgb(128,128,128);stroke:none;font-family:&quot;Arial&quot;;font-size:9px;" x="-3.5" y="-120">O</text>
  </g>
  <g transform="matrix(0.49485642792851936 -0.8689747497699953 0.8689747497699953 0.49485642792851936 289 289)">
    <text style="fill:rgb(128,128,128);stroke:none;font-family:&quot;Arial&quot;;font-size:9px;" x="-3" y="-120">D</text>
  </g>
  <g transform="matrix(0.5446207968179285 -0.8386824116871682 0.8386824116871682 0.5446207968179285 289 289)">
    <text style="fill:rgb(128,128,128);stroke:none;font-family:&quot;Arial&quot;;font-size:9px;" x="-3" y="-120">D</text>
  </g>
  <g transform="matrix(0.5891857168948309 -0.8079976429465152 0.8079976429465152 0.5891857168948309 289 289)">
    <text style="fill:rgb(128,128,128);stroke:none;font-family:&quot;Arial&quot;;font-size:9px;" x="-2.5" y="-120">_</text>
  </g>
  <g transform="matrix(0.6320257444473398 -0.7749473907019662 0.7749473907019662 0.6320257444473398 289 289)">
    <text style="fill:rgb(128,128,128);stroke:none;font-family:&quot;Arial&quot;;font-size:9px;" x="-3" y="-120">N</text>
  </g>
  <g transform="matrix(0.6760817078728866 -0.7368266582308765 0.7368266582308765 0.6760817078728866 289 289)">
    <text style="fill:rgb(128,128,128);stroke:none;font-family:&quot;Arial&quot;;font-size:9px;" x="-3" y="-120">A</text>
  </g>
  <g transform="matrix(0.7178429700977981 -0.696205049020166 0.696205049020166 0.7178429700977981 289 289)">
    <text style="fill:rgb(128,128,128);stroke:none;font-family:&quot;Arial&quot;;font-size:9px;" x="-3" y="-120">S</text>
  </g>
  <g transform="matrix(0.7598731050223839 -0.6500714301241373 0.6500714301241373 0.7598731050223839 289 289)">
    <text style="fill:rgb(128,128,128);stroke:none;font-family:&quot;Arial&quot;;font-size:9px;" x="-3.5" y="-120">O</text>
  </g>
  <g transform="matrix(0.79894365347698 -0.6014058850467421 0.6014058850467421 0.79894365347698 289 289)">
    <text style="fill:rgb(128,128,128);stroke:none;font-family:&quot;Arial&quot;;font-size:9px;" x="-3" y="-120">P</text>
  </g>
  <g transform="matrix(0.8326102726139982 -0.5538593087938881 0.5538593087938881 0.8326102726139982 289 289)">
    <text style="fill:rgb(128,128,128);stroke:none;font-family:&quot;Arial&quot;;font-size:9px;" x="-3" y="-120">H</text>
  </g>
  <g transform="matrix(0.8634509141066283 -0.5044328686043644 0.5044328686043644 0.8634509141066283 289 289)">
    <text style="fill:rgb(128,128,128);stroke:none;font-family:&quot;Arial&quot;;font-size:9px;" x="-3" y="-120">A</text>
  </g>
  <g transform="matrix(0.8913609011735917 -0.4532943236562781 0.4532943236562781 0.8913609011735917 289 289)">
    <text style="fill:rgb(128,128,128);stroke:none;font-family:&quot;Arial&quot;;font-size:9px;" x="-3" y="-120">R</text>
  </g>
  <g transform="matrix(0.916245504021009 -0.4006172442135849 0.4006172442135849 0.916245504021009 289 289)">
    <text style="fill:rgb(128,128,128);stroke:none;font-family:&quot;Arial&quot;;font-size:9px;" x="-3" y="-120">Y</text>
  </g>
  <g transform="matrix(0.9380202613665143 -0.3465804225081046 0.3465804225081046 0.9380202613665143 289 289)">
    <text style="fill:rgb(128,128,128);stroke:none;font-family:&quot;Arial&quot;;font-size:9px;" x="-3" y="-120">N</text>
  </g>
  <g transform="matrix(0.9578126332970366 -0.28739338805302495 0.28739338805302495 0.9578126332970366 289 289)">
    <text style="fill:rgb(128,128,128);stroke:none;font-family:&quot;Arial&quot;;font-size:9px;" x="-3.5" y="-120">G</text>
  </g>
  <g transform="matrix(0.9738744753646712 -0.2270870014624052 0.2270870014624052 0.9738744753646712 289 289)">
    <text style="fill:rgb(128,128,128);stroke:none;font-family:&quot;Arial&quot;;font-size:9px;" x="-3" y="-120">E</text>
  </g>
  <g transform="matrix(0.9854460140933176 -0.16998868582230126 0.16998868582230126 0.9854460140933176 289 289)">
    <text style="fill:rgb(128,128,128);stroke:none;font-family:&quot;Arial&quot;;font-size:9px;" x="-3" y="-120">A</text>
  </g>
  <g transform="matrix(0.9931977668372313 -0.11643966656400603 0.11643966656400603 0.9931977668372313 289 289)">
    <text style="fill:rgb(128,128,128);stroke:none;font-family:&quot;Arial&quot;;font-size:9px;" x="-2.5" y="-120">L</text>
  </g>
  <g transform="matrix(0.9977733120628848 -0.06669645968911081 0.06669645968911081 0.9977733120628848 289 289)">
    <text style="fill:rgb(128,128,128);stroke:none;font-family:&quot;Arial&quot;;font-size:9px;" x="-2.5" y="-120">_</text>
  </g>
  <g transform="matrix(0.9999202145236579 -0.01263188770382665 0.01263188770382665 0.9999202145236579 289 289)">
    <text style="fill:rgb(128,128,128);stroke:none;font-family:&quot;Arial&quot;;font-size:9px;" x="-3" y="-120">C</text>
  </g>
  <g transform="matrix(0.9989589004664889 0.04561924132187543 -0.04561924132187543 0.9989589004664889 289 289)">
    <text style="fill:rgb(128,128,128);stroke:none;font-family:&quot;Arial&quot;;font-size:9px;" x="-3" y="-120">A</text>
  </g>
  <g transform="matrix(0.994607001866665 0.10371553325227621 -0.10371553325227621 0.994607001866665 289 289)">
    <text style="fill:rgb(128,128,128);stroke:none;font-family:&quot;Arial&quot;;font-size:9px;" x="-3" y="-120">R</text>
  </g>
  <g transform="matrix(0.986879289582243 0.16145980240805216 -0.16145980240805216 0.986879289582243 289 289)">
    <text style="fill:rgb(128,128,128);stroke:none;font-family:&quot;Arial&quot;;font-size:9px;" x="-3" y="-120">C</text>
  </g>
  <g transform="matrix(0.9784518735932565 0.2064750131658699 -0.2064750131658699 0.9784518735932565 289 289)">
    <text style="fill:rgb(128,128,128);stroke:none;font-family:&quot;Arial&quot;;font-size:9px;" x="-1.5" y="-120">I</text>
  </g>
  <g transform="matrix(0.967972261900924 0.25105716518436383 -0.25105716518436383 0.967972261900924 289 289)">
    <text style="fill:rgb(128,128,128);stroke:none;font-family:&quot;Arial&quot;;font-size:9px;" x="-3" y="-120">N</text>
  </g>
  <g transform="matrix(0.9504266961989524 0.3109487018019922 -0.3109487018019922 0.9504266961989524 289 289)">
    <text style="fill:rgb(128,128,128);stroke:none;font-family:&quot;Arial&quot;;font-size:9px;" x="-3.5" y="-120">O</text>
  </g>
  <g transform="matrix(0.9276376511304864 0.37348144291934254 -0.37348144291934254 0.9276376511304864 289 289)">
    <text style="fill:rgb(128,128,128);stroke:none;font-family:&quot;Arial&quot;;font-size:9px;" x="-3.5" y="-120">M</text>
  </g>
  <g transform="matrix(0.9025340172885196 0.43061856397169673 -0.43061856397169673 0.9025340172885196 289 289)">
    <text style="fill:rgb(128,128,128);stroke:none;font-family:&quot;Arial&quot;;font-size:9px;" x="-3" y="-120">A</text>
  </g>
  <g transform="matrix(0.8779218648218619 0.4788039257020609 -0.4788039257020609 0.8779218648218619 289 289)">
    <text style="fill:rgb(128,128,128);stroke:none;font-family:&quot;Arial&quot;;font-size:9px;" x="-2.5" y="-120">_</text>
  </g>
  <g transform="matrix(0.8507395195989819 0.5255875472197696 -0.5255875472197696 0.8507395195989819 289 289)">
    <text style="fill:rgb(128,128,128);stroke:none;font-family:&quot;Arial&quot;;font-size:9px;" x="-3" y="-120">D</text>
  </g>
  <g transform="matrix(0.818688521384371 0.5742378470228798 -0.5742378470228798 0.818688521384371 289 289)">
    <text style="fill:rgb(128,128,128);stroke:none;font-family:&quot;Arial&quot;;font-size:9px;" x="-3" y="-120">N</text>
  </g>
  <g transform="matrix(-0.3791409157398399 -0.925338946555237 0.925338946555237 -0.3791409157398399 289 289)">
    <rect height="13" style="fill:rgb(255,255,255);stroke:none;" width="16" x="-8" y="-142"/>
  </g>
  <g transform="matrix(-0.33317128774677607 -0.9428663176830292 0.9428663176830292 -0.33317128774677607 289 289)">
    <rect height="13" style="fill:rgb(255,255,255);stroke:none;" width="17" x="-8" y="-142"/>
  </g>
  <g transform="matrix(-0.28277347073054 -0.9591867202223999 0.9591867202223999 -0.28277347073054 289 289)">
    <rect height="13" style="fill:rgb(255,255,255);stroke:none;" width="17" x="-8" y="-142"/>
  </g>
  <g transform="matrix(-0.2352557380420278 -0.9719335047822463 0.9719335047822463 -0.2352557380420278 289 289)">
    <rect height="13" style="fill:rgb(255,255,255);stroke:none;" width="16" x="-8" y="-142"/>
  </g>
  <g transform="matrix(-0.18716858873364 -0.9823278064838934 0.9823278064838934 -0.18716858873364 289 289)">
    <rect height="13" style="fill:rgb(255,255,255);stroke:none;" width="17" x="-8" y="-142"/>
  </g>
  <g transform="matrix(-0.13114299454643155 -0.9913634626015801 0.9913634626015801 -0.13114299454643155 289 289)">
    <rect height="13" style="fill:rgb(255,255,255);stroke:none;" width="18" x="-9" y="-142"/>
  </g>
  <g transform="matrix(-0.07469505299641417 -0.9972064224912829 0.9972064224912829 -0.07469505299641417 289 289)">
    <rect height="13" style="fill:rgb(255,255,255);stroke:none;" width="17" x="-8" y="-142"/>
  </g>
  <g transform="matrix(-0.025559221835827067 -0.9996733097263061 0.9996733097263061 -0.025559221835827067 289 289)">
    <rect height="13" style="fill:rgb(255,255,255);stroke:none;" width="16" x="-8" y="-142"/>
  </g>
  <g transform="matrix(0.01985996815122925 -0.9998027713829524 0.9998027713829524 0.01985996815122925 289 289)">
    <rect height="13" style="fill:rgb(255,255,255);stroke:none;" width="16" x="-8" y="-142"/>
  </g>
  <g transform="matrix(0.06523818862114011 -0.9978697203269736 0.9978697203269736 0.06523818862114011 289 289)">
    <rect height="13" style="fill:rgb(255,255,255);stroke:none;" width="16" x="-8" y="-142"/>
  </g>
  <g transform="matrix(0.11423729435782742 -0.9934534919047812 0.9934534919047812 0.11423729435782742 289 289)">
    <rect height="13" style="fill:rgb(255,255,255);stroke:none;" width="17" x="-8" y="-142"/>
  </g>
  <g transform="matrix(0.1666862200486216 -0.9860099918590595 0.9860099918590595 0.1666862200486216 289 289)">
    <rect height="13" style="fill:rgb(255,255,255);stroke:none;" width="17" x="-8" y="-142"/>
  </g>
  <g transform="matrix(0.2223508958986793 -0.9749667066587734 0.9749667066587734 0.2223508958986793 289 289)">
    <rect height="13" style="fill:rgb(255,255,255);stroke:none;" width="18" x="-9" y="-142"/>
  </g>
  <g transform="matrix(0.27729948840150365 -0.960783531151666 0.960783531151666 0.27729948840150365 289 289)">
    <rect height="13" style="fill:rgb(255,255,255);stroke:none;" width="17" x="-8" y="-142"/>
  </g>
  <g transform="matrix(0.3242179521536619 -0.9459824097208605 0.9459824097208605 0.3242179521536619 289 289)">
    <rect height="13" style="fill:rgb(255,255,255);stroke:none;" width="16" x="-8" y="-142"/>
  </g>
  <g transform="matrix(0.3703516737696461 -0.9288916178629354 0.9288916178629354 0.3703516737696461 289 289)">
    <rect height="13" style="fill:rgb(255,255,255);stroke:none;" width="17" x="-8" y="-142"/>
  </g>
  <g transform="matrix(0.415588990477515 -0.9095525223943255 0.9095525223943255 0.415588990477515 289 289)">
    <rect height="13" style="fill:rgb(255,255,255);stroke:none;" width="16" x="-8" y="-142"/>
  </g>
  <g transform="matrix(0.4598204091776043 -0.8880119319602302 0.8880119319602302 0.4598204091776043 289 289)">
    <rect height="13" style="fill:rgb(255,255,255);stroke:none;" width="17" x="-8" y="-142"/>
  </g>
  <g transform="matrix(0.5062006786606937 -0.8624157193160692 0.8624157193160692 0.5062006786606937 289 289)">
    <rect height="13" style="fill:rgb(255,255,255);stroke:none;" width="17" x="-8" y="-142"/>
  </g>
  <g transform="matrix(-0.3791409157398399 -0.925338946555237 0.925338946555237 -0.3791409157398399 289 289)">
    <text style="fill:rgb(128,128,128);stroke:none;font-family:&quot;Arial&quot;;font-size:10px;" x="-3" y="-132">L</text>
  </g>
  <g transform="matrix(-0.33317128774677607 -0.9428663176830292 0.9428663176830292 -0.33317128774677607 289 289)">
    <text style="fill:rgb(128,128,128);stroke:none;font-family:&quot;Arial&quot;;font-size:10px;" x="-3.5" y="-132">E</text>
  </g>
  <g transform="matrix(-0.28277347073054 -0.9591867202223999 0.9591867202223999 -0.28277347073054 289 289)">
    <text style="fill:rgb(128,128,128);stroke:none;font-family:&quot;Arial&quot;;font-size:10px;" x="-3.5" y="-132">E</text>
  </g>
  <g transform="matrix(-0.2352557380420278 -0.9719335047822463 0.9719335047822463 -0.2352557380420278 289 289)">
    <text style="fill:rgb(128,128,128);stroke:none;font-family:&quot;Arial&quot;;font-size:10px;" x="-3" y="-132">_</text>
  </g>
  <g transform="matrix(-0.18716858873364 -0.9823278064838934 0.9823278064838934 -0.18716858873364 289 289)">
    <text style="fill:rgb(128,128,128);stroke:none;font-family:&quot;Arial&quot;;font-size:10px;" x="-3.5" y="-132">B</text>
  </g>
  <g transform="matrix(-0.13114299454643155 -0.9913634626015801 0.9913634626015801 -0.13114299454643155 289 289)">
    <text style="fill:rgb(128,128,128);stroke:none;font-family:&quot;Arial&quot;;font-size:10px;" x="-4" y="-132">M</text>
  </g>
  <g transform="matrix(-0.07469505299641417 -0.9972064224912829 0.9972064224912829 -0.07469505299641417 289 289)">
    <text style="fill:rgb(128,128,128);stroke:none;font-family:&quot;Arial&quot;;font-size:10px;" x="-3.5" y="-132">P</text>
  </g>
  <g transform="matrix(-0.025559221835827067 -0.9996733097263061 0.9996733097263061 -0.025559221835827067 289 289)">
    <text style="fill:rgb(128,128,128);stroke:none;font-family:&quot;Arial&quot;;font-size:10px;" x="-3" y="-132">2</text>
  </g>
  <g transform="matrix(0.01985996815122925 -0.9998027713829524 0.9998027713829524 0.01985996815122925 289 289)">
    <text style="fill:rgb(128,128,128);stroke:none;font-family:&quot;Arial&quot;;font-size:10px;" x="-3" y="-132">_</text>
  </g>
  <g transform="matrix(0.06523818862114011 -0.9978697203269736 0.9978697203269736 0.06523818862114011 289 289)">
    <text style="fill:rgb(128,128,128);stroke:none;font-family:&quot;Arial&quot;;font-size:10px;" x="-3" y="-132">T</text>
  </g>
  <g transform="matrix(0.11423729435782742 -0.9934534919047812 0.9934534919047812 0.11423729435782742 289 289)">
    <text style="fill:rgb(128,128,128);stroke:none;font-family:&quot;Arial&quot;;font-size:10px;" x="-3.5" y="-132">A</text>
  </g>
  <g transform="matrix(0.1666862200486216 -0.9860099918590595 0.9860099918590595 0.1666862200486216 289 289)">
    <text style="fill:rgb(128,128,128);stroke:none;font-family:&quot;Arial&quot;;font-size:10px;" x="-3.5" y="-132">R</text>
  </g>
  <g transform="matrix(0.2223508958986793 -0.9749667066587734 0.9749667066587734 0.2223508958986793 289 289)">
    <text style="fill:rgb(128,128,128);stroke:none;font-family:&quot;Arial&quot;;font-size:10px;" x="-4" y="-132">G</text>
  </g>
  <g transform="matrix(0.27729948840150365 -0.960783531151666 0.960783531151666 0.27729948840150365 289 289)">
    <text style="fill:rgb(128,128,128);stroke:none;font-family:&quot;Arial&quot;;font-size:10px;" x="-3.5" y="-132">E</text>
  </g>
  <g transform="matrix(0.3242179521536619 -0.9459824097208605 0.9459824097208605 0.3242179521536619 289 289)">
    <text style="fill:rgb(128,128,128);stroke:none;font-family:&quot;Arial&quot;;font-size:10px;" x="-3" y="-132">T</text>
  </g>
  <g transform="matrix(0.3703516737696461 -0.9288916178629354 0.9288916178629354 0.3703516737696461 289 289)">
    <text style="fill:rgb(128,128,128);stroke:none;font-family:&quot;Arial&quot;;font-size:10px;" x="-3.5" y="-132">S</text>
  </g>
  <g transform="matrix(0.415588990477515 -0.9095525223943255 0.9095525223943255 0.415588990477515 289 289)">
    <text style="fill:rgb(128,128,128);stroke:none;font-family:&quot;Arial&quot;;font-size:10px;" x="-3" y="-132">_</text>
  </g>
  <g transform="matrix(0.4598204091776043 -0.8880119319602302 0.8880119319602302 0.4598204091776043 289 289)">
    <text style="fill:rgb(128,128,128);stroke:none;font-family:&quot;Arial&quot;;font-size:10px;" x="-3.5" y="-132">D</text>
  </g>
  <g transform="matrix(0.5062006786606937 -0.8624157193160692 0.8624157193160692 0.5062006786606937 289 289)">
    <text style="fill:rgb(128,128,128);stroke:none;font-family:&quot;Arial&quot;;font-size:10px;" x="-3.5" y="-132">N</text>
  </g>
  <g transform="matrix(0.5535368175601576 -0.8328247064090815 0.8328247064090815 0.5535368175601576 289 289)">
    <rect height="14" style="fill:rgb(255,255,255);stroke:none;" width="19" x="-9" y="-156"/>
  </g>
  <g transform="matrix(0.6013252696566486 -0.799004330446562 0.799004330446562 0.6013252696566486 289 289)">
    <rect height="14" style="fill:rgb(255,255,255);stroke:none;" width="20" x="-9" y="-156"/>
  </g>
  <g transform="matrix(0.6417951283135573 -0.766876139459942 0.766876139459942 0.6417951283135573 289 289)">
    <rect height="14" style="fill:rgb(255,255,255);stroke:none;" width="17" x="-8" y="-156"/>
  </g>
  <g transform="matrix(0.6780271038123324 -0.7350369014517982 0.7350369014517982 0.6780271038123324 289 289)">
    <rect height="14" style="fill:rgb(255,255,255);stroke:none;" width="19" x="-9" y="-156"/>
  </g>
  <g transform="matrix(0.7198796427896884 -0.6940989121854252 0.6940989121854252 0.7198796427896884 289 289)">
    <rect height="14" style="fill:rgb(255,255,255);stroke:none;" width="20" x="-9" y="-156"/>
  </g>
  <g transform="matrix(0.7592647554293823 -0.6507818614272837 0.6507818614272837 0.7592647554293823 289 289)">
    <rect height="14" style="fill:rgb(255,255,255);stroke:none;" width="19" x="-9" y="-156"/>
  </g>
  <g transform="matrix(0.791867318195003 -0.6106931720386711 0.6106931720386711 0.791867318195003 289 289)">
    <rect height="14" style="fill:rgb(255,255,255);stroke:none;" width="18" x="-8" y="-156"/>
  </g>
  <g transform="matrix(0.8243070944396629 -0.5661429272334334 0.5661429272334334 0.8243070944396629 289 289)">
    <rect height="14" style="fill:rgb(255,255,255);stroke:none;" width="20" x="-9" y="-156"/>
  </g>
  <g transform="matrix(0.8577962344358162 -0.5139899028071798 0.5139899028071798 0.8577962344358162 289 289)">
    <rect height="14" style="fill:rgb(255,255,255);stroke:none;" width="20" x="-9" y="-156"/>
  </g>
  <g transform="matrix(0.8864049687045074 -0.46291060849365007 0.46291060849365007 0.8864049687045074 289 289)">
    <rect height="14" style="fill:rgb(255,255,255);stroke:none;" width="19" x="-9" y="-156"/>
  </g>
  <g transform="matrix(0.9105600471626505 -0.41337682628704725 0.41337682628704725 0.9105600471626505 289 289)">
    <rect height="14" style="fill:rgb(255,255,255);stroke:none;" width="19" x="-9" y="-156"/>
  </g>
  <g transform="matrix(0.9306974510644035 -0.3657899049758239 0.3657899049758239 0.9306974510644035 289 289)">
    <rect height="14" style="fill:rgb(255,255,255);stroke:none;" width="18" x="-8" y="-156"/>
  </g>
  <g transform="matrix(0.9472531018871779 -0.3204864442766958 0.3204864442766958 0.9472531018871779 289 289)">
    <rect height="14" style="fill:rgb(255,255,255);stroke:none;" width="18" x="-8" y="-156"/>
  </g>
  <g transform="matrix(0.9625432593901657 -0.27112815014777836 0.27112815014777836 0.9625432593901657 289 289)">
    <rect height="14" style="fill:rgb(255,255,255);stroke:none;" width="19" x="-9" y="-156"/>
  </g>
  <g transform="matrix(0.9767601557548092 -0.2143352470543305 0.2143352470543305 0.9767601557548092 289 289)">
    <rect height="14" style="fill:rgb(255,255,255);stroke:none;" width="20" x="-9" y="-156"/>
  </g>
  <g transform="matrix(0.9881620774940487 -0.15341352157696397 0.15341352157696397 0.9881620774940487 289 289)">
    <rect height="14" style="fill:rgb(255,255,255);stroke:none;" width="20" x="-9" y="-156"/>
  </g>
  <g transform="matrix(0.9951128632036739 -0.09874406051295599 0.09874406051295599 0.9951128632036739 289 289)">
    <rect height="14" style="fill:rgb(255,255,255);stroke:none;" width="18" x="-8" y="-156"/>
  </g>
  <g transform="matrix(0.9990414280625592 -0.04377470747728943 0.04377470747728943 0.9990414280625592 289 289)">
    <rect height="14" style="fill:rgb(255,255,255);stroke:none;" width="20" x="-9" y="-156"/>
  </g>
  <g transform="matrix(0.9998909996616415 0.014764443627956439 -0.014764443627956439 0.9998909996616415 289 289)">
    <rect height="14" style="fill:rgb(255,255,255);stroke:none;" width="19" x="-9" y="-156"/>
  </g>
  <g transform="matrix(0.9977934715239436 0.06639418787964206 -0.06639418787964206 0.9977934715239436 289 289)">
    <rect height="14" style="fill:rgb(255,255,255);stroke:none;" width="18" x="-8" y="-156"/>
  </g>
  <g transform="matrix(0.9917638762495059 0.12807971645250774 -0.12807971645250774 0.9917638762495059 289 289)">
    <rect height="14" style="fill:rgb(255,255,255);stroke:none;" width="22" x="-10" y="-156"/>
  </g>
  <g transform="matrix(0.9806015691954083 0.1960116386633787 -0.1960116386633787 0.9806015691954083 289 289)">
    <rect height="14" style="fill:rgb(255,255,255);stroke:none;" width="20" x="-9" y="-156"/>
  </g>
  <g transform="matrix(0.9665752265436276 0.25638317306745184 -0.25638317306745184 0.9665752265436276 289 289)">
    <rect height="14" style="fill:rgb(255,255,255);stroke:none;" width="20" x="-9" y="-156"/>
  </g>
  <g transform="matrix(0.9499151307067994 0.31250799102468424 -0.31250799102468424 0.9499151307067994 289 289)">
    <rect height="14" style="fill:rgb(255,255,255);stroke:none;" width="19" x="-9" y="-156"/>
  </g>
  <g transform="matrix(0.5535368175601576 -0.8328247064090815 0.8328247064090815 0.5535368175601576 289 289)">
    <text style="fill:rgb(128,128,128);stroke:none;font-family:&quot;Arial&quot;;" x="-4" y="-145">P</text>
  </g>
  <g transform="matrix(0.6013252696566486 -0.799004330446562 0.799004330446562 0.6013252696566486 289 289)">
    <text style="fill:rgb(128,128,128);stroke:none;font-family:&quot;Arial&quot;;" x="-4.5" y="-145">U</text>
  </g>
  <g transform="matrix(0.6417951283135573 -0.766876139459942 0.766876139459942 0.6417951283135573 289 289)">
    <text style="fill:rgb(128,128,128);stroke:none;font-family:&quot;Arial&quot;;" x="-3" y="-145">J</text>
  </g>
  <g transform="matrix(0.6780271038123324 -0.7350369014517982 0.7350369014517982 0.6780271038123324 289 289)">
    <text style="fill:rgb(128,128,128);stroke:none;font-family:&quot;Arial&quot;;" x="-4" y="-145">A</text>
  </g>
  <g transform="matrix(0.7198796427896884 -0.6940989121854252 0.6940989121854252 0.7198796427896884 289 289)">
    <text style="fill:rgb(128,128,128);stroke:none;font-family:&quot;Arial&quot;;" x="-4.5" y="-145">N</text>
  </g>
  <g transform="matrix(0.7592647554293823 -0.6507818614272837 0.6507818614272837 0.7592647554293823 289 289)">
    <text style="fill:rgb(128,128,128);stroke:none;font-family:&quot;Arial&quot;;" x="-4" y="-145">A</text>
  </g>
  <g transform="matrix(0.791867318195003 -0.6106931720386711 0.6106931720386711 0.791867318195003 289 289)">
    <text style="fill:rgb(128,128,128);stroke:none;font-family:&quot;Arial&quot;;" x="-3.5" y="-145">_</text>
  </g>
  <g transform="matrix(0.8243070944396629 -0.5661429272334334 0.5661429272334334 0.8243070944396629 289 289)">
    <text style="fill:rgb(128,128,128);stroke:none;font-family:&quot;Arial&quot;;" x="-4.5" y="-145">C</text>
  </g>
  <g transform="matrix(0.8577962344358162 -0.5139899028071798 0.5139899028071798 0.8577962344358162 289 289)">
    <text style="fill:rgb(128,128,128);stroke:none;font-family:&quot;Arial&quot;;" x="-4.5" y="-145">H</text>
  </g>
  <g transform="matrix(0.8864049687045074 -0.46291060849365007 0.46291060849365007 0.8864049687045074 289 289)">
    <text style="fill:rgb(128,128,128);stroke:none;font-family:&quot;Arial&quot;;" x="-4" y="-145">E</text>
  </g>
  <g transform="matrix(0.9105600471626505 -0.41337682628704725 0.41337682628704725 0.9105600471626505 289 289)">
    <text style="fill:rgb(128,128,128);stroke:none;font-family:&quot;Arial&quot;;" x="-4" y="-145">K</text>
  </g>
  <g transform="matrix(0.9306974510644035 -0.3657899049758239 0.3657899049758239 0.9306974510644035 289 289)">
    <text style="fill:rgb(128,128,128);stroke:none;font-family:&quot;Arial&quot;;" x="-3.5" y="-145">2</text>
  </g>
  <g transform="matrix(0.9472531018871779 -0.3204864442766958 0.3204864442766958 0.9472531018871779 289 289)">
    <text style="fill:rgb(128,128,128);stroke:none;font-family:&quot;Arial&quot;;" x="-3.5" y="-145">_</text>
  </g>
  <g transform="matrix(0.9625432593901657 -0.27112815014777836 0.27112815014777836 0.9625432593901657 289 289)">
    <text style="fill:rgb(128,128,128);stroke:none;font-family:&quot;Arial&quot;;" x="-4" y="-145">P</text>
  </g>
  <g transform="matrix(0.9767601557548092 -0.2143352470543305 0.2143352470543305 0.9767601557548092 289 289)">
    <text style="fill:rgb(128,128,128);stroke:none;font-family:&quot;Arial&quot;;" x="-4.5" y="-145">C</text>
  </g>
  <g transform="matrix(0.9881620774940487 -0.15341352157696397 0.15341352157696397 0.9881620774940487 289 289)">
    <text style="fill:rgb(128,128,128);stroke:none;font-family:&quot;Arial&quot;;" x="-4.5" y="-145">C</text>
  </g>
  <g transform="matrix(0.9951128632036739 -0.09874406051295599 0.09874406051295599 0.9951128632036739 289 289)">
    <text style="fill:rgb(128,128,128);stroke:none;font-family:&quot;Arial&quot;;" x="-3.5" y="-145">_</text>
  </g>
  <g transform="matrix(0.9990414280625592 -0.04377470747728943 0.04377470747728943 0.9990414280625592 289 289)">
    <text style="fill:rgb(128,128,128);stroke:none;font-family:&quot;Arial&quot;;" x="-4.5" y="-145">N</text>
  </g>
  <g transform="matrix(0.9998909996616415 0.014764443627956439 -0.014764443627956439 0.9998909996616415 289 289)">
    <text style="fill:rgb(128,128,128);stroke:none;font-family:&quot;Arial&quot;;" x="-4" y="-145">E</text>
  </g>
  <g transform="matrix(0.9977934715239436 0.06639418787964206 -0.06639418787964206 0.9977934715239436 289 289)">
    <text style="fill:rgb(128,128,128);stroke:none;font-family:&quot;Arial&quot;;" x="-3.5" y="-145">T</text>
  </g>
  <g transform="matrix(0.9917638762495059 0.12807971645250774 -0.12807971645250774 0.9917638762495059 289 289)">
    <text style="fill:rgb(128,128,128);stroke:none;font-family:&quot;Arial&quot;;" x="-5.5" y="-145">W</text>
  </g>
  <g transform="matrix(0.9806015691954083 0.1960116386633787 -0.1960116386633787 0.9806015691954083 289 289)">
    <text style="fill:rgb(128,128,128);stroke:none;font-family:&quot;Arial&quot;;" x="-4.5" y="-145">O</text>
  </g>
  <g transform="matrix(0.9665752265436276 0.25638317306745184 -0.25638317306745184 0.9665752265436276 289 289)">
    <text style="fill:rgb(128,128,128);stroke:none;font-family:&quot;Arial&quot;;" x="-4.5" y="-145">R</text>
  </g>
  <g transform="matrix(0.9499151307067994 0.31250799102468424 -0.31250799102468424 0.9499151307067994 289 289)">
    <text style="fill:rgb(128,128,128);stroke:none;font-family:&quot;Arial&quot;;" x="-4" y="-145">K</text>
  </g>
  <g transform="matrix(0.42468837798826947 -0.905339594628277 0.905339594628277 0.42468837798826947 289 289)">
    <rect height="16" style="fill:rgb(255,255,255);stroke:none;" width="21" x="-10" y="-171"/>
  </g>
  <g transform="matrix(0.4806782424406718 -0.8768970448371615 0.8768970448371615 0.4806782424406718 289 289)">
    <rect height="16" style="fill:rgb(255,255,255);stroke:none;" width="21" x="-10" y="-171"/>
  </g>
  <g transform="matrix(0.5214615093187164 -0.8532748058504049 0.8532748058504049 0.5214615093187164 289 289)">
    <rect height="16" style="fill:rgb(255,255,255);stroke:none;" width="16" x="-8" y="-171"/>
  </g>
  <g transform="matrix(0.5636805345697531 -0.825992890373251 0.825992890373251 0.5636805345697531 289 289)">
    <rect height="16" style="fill:rgb(255,255,255);stroke:none;" width="22" x="-11" y="-171"/>
  </g>
  <g transform="matrix(0.6168835889027868 -0.7870544058338137 0.7870544058338137 0.6168835889027868 289 289)">
    <rect height="16" style="fill:rgb(255,255,255);stroke:none;" width="21" x="-10" y="-171"/>
  </g>
  <g transform="matrix(0.6603767649789931 -0.7509344367359109 0.7509344367359109 0.6603767649789931 289 289)">
    <rect height="16" style="fill:rgb(255,255,255);stroke:none;" width="19" x="-9" y="-171"/>
  </g>
  <g transform="matrix(0.7017591731664148 -0.7124142494902737 0.7124142494902737 0.7017591731664148 289 289)">
    <rect height="16" style="fill:rgb(255,255,255);stroke:none;" width="21" x="-10" y="-171"/>
  </g>
  <g transform="matrix(0.7450929328248356 -0.6669606596003134 0.6669606596003134 0.7450929328248356 289 289)">
    <rect height="16" style="fill:rgb(255,255,255);stroke:none;" width="21" x="-10" y="-171"/>
  </g>
  <g transform="matrix(0.7854881625185198 -0.6188766812082027 0.6188766812082027 0.7854881625185198 289 289)">
    <rect height="16" style="fill:rgb(255,255,255);stroke:none;" width="21" x="-10" y="-171"/>
  </g>
  <g transform="matrix(0.8227855497809847 -0.5683519500024635 0.5683519500024635 0.8227855497809847 289 289)">
    <rect height="16" style="fill:rgb(255,255,255);stroke:none;" width="21" x="-10" y="-171"/>
  </g>
  <g transform="matrix(0.8584484227529422 -0.5128998981019454 0.5128998981019454 0.8584484227529422 289 289)">
    <rect height="16" style="fill:rgb(255,255,255);stroke:none;" width="22" x="-11" y="-171"/>
  </g>
  <g transform="matrix(0.8903798173862231 -0.45521838801972403 0.45521838801972403 0.8903798173862231 289 289)">
    <rect height="16" style="fill:rgb(255,255,255);stroke:none;" width="21" x="-10" y="-171"/>
  </g>
  <g transform="matrix(0.9171976890359722 -0.3984324274291339 0.3984324274291339 0.9171976890359722 289 289)">
    <rect height="16" style="fill:rgb(255,255,255);stroke:none;" width="21" x="-10" y="-171"/>
  </g>
  <g transform="matrix(0.9403982764865529 -0.3400751116755248 0.3400751116755248 0.9403982764865529 289 289)">
    <rect height="16" style="fill:rgb(255,255,255);stroke:none;" width="21" x="-10" y="-171"/>
  </g>
  <g transform="matrix(0.9581141458661155 -0.28638659796024657 0.28638659796024657 0.9581141458661155 289 289)">
    <rect height="16" style="fill:rgb(255,255,255);stroke:none;" width="19" x="-9" y="-171"/>
  </g>
  <g transform="matrix(0.9720361321220788 -0.23483133915461207 0.23483133915461207 0.9720361321220788 289 289)">
    <rect height="16" style="fill:rgb(255,255,255);stroke:none;" width="20" x="-10" y="-171"/>
  </g>
  <g transform="matrix(0.984859495677179 -0.17335447434229262 0.17335447434229262 0.984859495677179 289 289)">
    <rect height="16" style="fill:rgb(255,255,255);stroke:none;" width="22" x="-11" y="-171"/>
  </g>
  <g transform="matrix(0.9934454947661912 -0.11430681925746027 0.11430681925746027 0.9934454947661912 289 289)">
    <rect height="16" style="fill:rgb(255,255,255);stroke:none;" width="19" x="-9" y="-171"/>
  </g>
  <g transform="matrix(0.9981309862249383 -0.061110836499199364 0.061110836499199364 0.9981309862249383 289 289)">
    <rect height="16" style="fill:rgb(255,255,255);stroke:none;" width="20" x="-10" y="-171"/>
  </g>
  <g transform="matrix(0.999998619849856 0.0016614145729228673 -0.0016614145729228673 0.999998619849856 289 289)">
    <rect height="16" style="fill:rgb(255,255,255);stroke:none;" width="22" x="-11" y="-171"/>
  </g>
  <g transform="matrix(0.9977157599637189 0.06755192314078864 -0.06755192314078864 0.9977157599637189 289 289)">
    <rect height="16" style="fill:rgb(255,255,255);stroke:none;" width="21" x="-10" y="-171"/>
  </g>
  <g transform="matrix(0.9915081717067485 0.13004439795216413 -0.13004439795216413 0.9915081717067485 289 289)">
    <rect height="16" style="fill:rgb(255,255,255);stroke:none;" width="21" x="-10" y="-171"/>
  </g>
  <g transform="matrix(0.9813902303320869 0.1920239980021595 -0.1920239980021595 0.9813902303320869 289 289)">
    <rect height="16" style="fill:rgb(255,255,255);stroke:none;" width="21" x="-10" y="-171"/>
  </g>
  <g transform="matrix(0.9666040215200231 0.25627459019832355 -0.25627459019832355 0.9666040215200231 289 289)">
    <rect height="16" style="fill:rgb(255,255,255);stroke:none;" width="22" x="-11" y="-171"/>
  </g>
  <g transform="matrix(0.9476162067957337 0.31941121554833557 -0.31941121554833557 0.9476162067957337 289 289)">
    <rect height="16" style="fill:rgb(255,255,255);stroke:none;" width="21" x="-10" y="-171"/>
  </g>
  <g transform="matrix(0.9268789419742213 0.37536039605257804 -0.37536039605257804 0.9268789419742213 289 289)">
    <rect height="16" style="fill:rgb(255,255,255);stroke:none;" width="20" x="-10" y="-171"/>
  </g>
  <g transform="matrix(0.9028416683911161 0.429973164065789 -0.429973164065789 0.9028416683911161 289 289)">
    <rect height="16" style="fill:rgb(255,255,255);stroke:none;" width="21" x="-10" y="-171"/>
  </g>
  <g transform="matrix(0.8755899670320647 0.4830550792950921 -0.4830550792950921 0.8755899670320647 289 289)">
    <rect height="16" style="fill:rgb(255,255,255);stroke:none;" width="20" x="-10" y="-171"/>
  </g>
  <g transform="matrix(0.8485546003742228 0.5291078247236031 -0.5291078247236031 0.8485546003742228 289 289)">
    <rect height="16" style="fill:rgb(255,255,255);stroke:none;" width="19" x="-9" y="-171"/>
  </g>
  <g transform="matrix(0.8208944140581528 0.5710799952442057 -0.5710799952442057 0.8208944140581528 289 289)">
    <rect height="16" style="fill:rgb(255,255,255);stroke:none;" width="19" x="-9" y="-171"/>
  </g>
  <g transform="matrix(0.7911600335979458 0.6116091899549067 -0.6116091899549067 0.7911600335979458 289 289)">
    <rect height="16" style="fill:rgb(255,255,255);stroke:none;" width="19" x="-9" y="-171"/>
  </g>
  <g transform="matrix(0.755331576826989 0.6553428179571776 -0.6553428179571776 0.755331576826989 289 289)">
    <rect height="16" style="fill:rgb(255,255,255);stroke:none;" width="21" x="-10" y="-171"/>
  </g>
  <g transform="matrix(0.7127068683803283 0.7014619873973966 -0.7014619873973966 0.7127068683803283 289 289)">
    <rect height="16" style="fill:rgb(255,255,255);stroke:none;" width="21" x="-10" y="-171"/>
  </g>
  <g transform="matrix(0.6719259126921017 0.7406183685629774 -0.7406183685629774 0.6719259126921017 289 289)">
    <rect height="16" style="fill:rgb(255,255,255);stroke:none;" width="19" x="-9" y="-171"/>
  </g>
  <g transform="matrix(0.6289972744757082 0.7774075049175501 -0.7774075049175501 0.6289972744757082 289 289)">
    <rect height="16" style="fill:rgb(255,255,255);stroke:none;" width="21" x="-10" y="-171"/>
  </g>
  <g transform="matrix(0.5789598015457819 0.8153560867461951 -0.8153560867461951 0.5789598015457819 289 289)">
    <rect height="16" style="fill:rgb(255,255,255);stroke:none;" width="21" x="-10" y="-171"/>
  </g>
  <g transform="matrix(0.42468837798826947 -0.905339594628277 0.905339594628277 0.42468837798826947 289 289)">
    <text style="fill:rgb(128,128,128);stroke:none;font-family:&quot;Arial&quot;;font-size:13px;" x="-4.5" y="-159">K</text>
  </g>
  <g transform="matrix(0.4806782424406718 -0.8768970448371615 0.8768970448371615 0.4806782424406718 289 289)">
    <text style="fill:rgb(128,128,128);stroke:none;font-family:&quot;Arial&quot;;font-size:13px;" x="-4.5" y="-159">R</text>
  </g>
  <g transform="matrix(0.5214615093187164 -0.8532748058504049 0.8532748058504049 0.5214615093187164 289 289)">
    <text style="fill:rgb(128,128,128);stroke:none;font-family:&quot;Arial&quot;;font-size:13px;" x="-2" y="-159">I</text>
  </g>
  <g transform="matrix(0.5636805345697531 -0.825992890373251 0.825992890373251 0.5636805345697531 289 289)">
    <text style="fill:rgb(128,128,128);stroke:none;font-family:&quot;Arial&quot;;font-size:13px;" x="-5" y="-159">G</text>
  </g>
  <g transform="matrix(0.6168835889027868 -0.7870544058338137 0.7870544058338137 0.6168835889027868 289 289)">
    <text style="fill:rgb(128,128,128);stroke:none;font-family:&quot;Arial&quot;;font-size:13px;" x="-4.5" y="-159">E</text>
  </g>
  <g transform="matrix(0.6603767649789931 -0.7509344367359109 0.7509344367359109 0.6603767649789931 289 289)">
    <text style="fill:rgb(128,128,128);stroke:none;font-family:&quot;Arial&quot;;font-size:13px;" x="-3.5" y="-159">_</text>
  </g>
  <g transform="matrix(0.7017591731664148 -0.7124142494902737 0.7124142494902737 0.7017591731664148 289 289)">
    <text style="fill:rgb(128,128,128);stroke:none;font-family:&quot;Arial&quot;;font-size:13px;" x="-4.5" y="-159">R</text>
  </g>
  <g transform="matrix(0.7450929328248356 -0.6669606596003134 0.6669606596003134 0.7450929328248356 289 289)">
    <text style="fill:rgb(128,128,128);stroke:none;font-family:&quot;Arial&quot;;font-size:13px;" x="-4.5" y="-159">E</text>
  </g>
  <g transform="matrix(0.7854881625185198 -0.6188766812082027 0.6188766812082027 0.7854881625185198 289 289)">
    <text style="fill:rgb(128,128,128);stroke:none;font-family:&quot;Arial&quot;;font-size:13px;" x="-4.5" y="-159">S</text>
  </g>
  <g transform="matrix(0.8227855497809847 -0.5683519500024635 0.5683519500024635 0.8227855497809847 289 289)">
    <text style="fill:rgb(128,128,128);stroke:none;font-family:&quot;Arial&quot;;font-size:13px;" x="-4.5" y="-159">P</text>
  </g>
  <g transform="matrix(0.8584484227529422 -0.5128998981019454 0.5128998981019454 0.8584484227529422 289 289)">
    <text style="fill:rgb(128,128,128);stroke:none;font-family:&quot;Arial&quot;;font-size:13px;" x="-5" y="-159">O</text>
  </g>
  <g transform="matrix(0.8903798173862231 -0.45521838801972403 0.45521838801972403 0.8903798173862231 289 289)">
    <text style="fill:rgb(128,128,128);stroke:none;font-family:&quot;Arial&quot;;font-size:13px;" x="-4.5" y="-159">N</text>
  </g>
  <g transform="matrix(0.9171976890359722 -0.3984324274291339 0.3984324274291339 0.9171976890359722 289 289)">
    <text style="fill:rgb(128,128,128);stroke:none;font-family:&quot;Arial&quot;;font-size:13px;" x="-4.5" y="-159">S</text>
  </g>
  <g transform="matrix(0.9403982764865529 -0.3400751116755248 0.3400751116755248 0.9403982764865529 289 289)">
    <text style="fill:rgb(128,128,128);stroke:none;font-family:&quot;Arial&quot;;font-size:13px;" x="-4.5" y="-159">E</text>
  </g>
  <g transform="matrix(0.9581141458661155 -0.28638659796024657 0.28638659796024657 0.9581141458661155 289 289)">
    <text style="fill:rgb(128,128,128);stroke:none;font-family:&quot;Arial&quot;;font-size:13px;" x="-3.5" y="-159">_</text>
  </g>
  <g transform="matrix(0.9720361321220788 -0.23483133915461207 0.23483133915461207 0.9720361321220788 289 289)">
    <text style="fill:rgb(128,128,128);stroke:none;font-family:&quot;Arial&quot;;font-size:13px;" x="-4" y="-159">T</text>
  </g>
  <g transform="matrix(0.984859495677179 -0.17335447434229262 0.17335447434229262 0.984859495677179 289 289)">
    <text style="fill:rgb(128,128,128);stroke:none;font-family:&quot;Arial&quot;;font-size:13px;" x="-5" y="-159">O</text>
  </g>
  <g transform="matrix(0.9934454947661912 -0.11430681925746027 0.11430681925746027 0.9934454947661912 289 289)">
    <text style="fill:rgb(128,128,128);stroke:none;font-family:&quot;Arial&quot;;font-size:13px;" x="-3.5" y="-159">_</text>
  </g>
  <g transform="matrix(0.9981309862249383 -0.061110836499199364 0.061110836499199364 0.9981309862249383 289 289)">
    <text style="fill:rgb(128,128,128);stroke:none;font-family:&quot;Arial&quot;;font-size:13px;" x="-4" y="-159">T</text>
  </g>
  <g transform="matrix(0.999998619849856 0.0016614145729228673 -0.0016614145729228673 0.999998619849856 289 289)">
    <text style="fill:rgb(128,128,128);stroke:none;font-family:&quot;Arial&quot;;font-size:13px;" x="-5" y="-159">O</text>
  </g>
  <g transform="matrix(0.9977157599637189 0.06755192314078864 -0.06755192314078864 0.9977157599637189 289 289)">
    <text style="fill:rgb(128,128,128);stroke:none;font-family:&quot;Arial&quot;;font-size:13px;" x="-4.5" y="-159">S</text>
  </g>
  <g transform="matrix(0.9915081717067485 0.13004439795216413 -0.13004439795216413 0.9915081717067485 289 289)">
    <text style="fill:rgb(128,128,128);stroke:none;font-family:&quot;Arial&quot;;font-size:13px;" x="-4.5" y="-159">E</text>
  </g>
  <g transform="matrix(0.9813902303320869 0.1920239980021595 -0.1920239980021595 0.9813902303320869 289 289)">
    <text style="fill:rgb(128,128,128);stroke:none;font-family:&quot;Arial&quot;;font-size:13px;" x="-4.5" y="-159">D</text>
  </g>
  <g transform="matrix(0.9666040215200231 0.25627459019832355 -0.25627459019832355 0.9666040215200231 289 289)">
    <text style="fill:rgb(128,128,128);stroke:none;font-family:&quot;Arial&quot;;font-size:13px;" x="-5" y="-159">O</text>
  </g>
  <g transform="matrix(0.9476162067957337 0.31941121554833557 -0.31941121554833557 0.9476162067957337 289 289)">
    <text style="fill:rgb(128,128,128);stroke:none;font-family:&quot;Arial&quot;;font-size:13px;" x="-4.5" y="-159">S</text>
  </g>
  <g transform="matrix(0.9268789419742213 0.37536039605257804 -0.37536039605257804 0.9268789419742213 289 289)">
    <text style="fill:rgb(128,128,128);stroke:none;font-family:&quot;Arial&quot;;font-size:13px;" x="-4" y="-159">T</text>
  </g>
  <g transform="matrix(0.9028416683911161 0.429973164065789 -0.429973164065789 0.9028416683911161 289 289)">
    <text style="fill:rgb(128,128,128);stroke:none;font-family:&quot;Arial&quot;;font-size:13px;" x="-4.5" y="-159">A</text>
  </g>
  <g transform="matrix(0.8755899670320647 0.4830550792950921 -0.4830550792950921 0.8755899670320647 289 289)">
    <text style="fill:rgb(128,128,128);stroke:none;font-family:&quot;Arial&quot;;font-size:13px;" x="-4" y="-159">T</text>
  </g>
  <g transform="matrix(0.8485546003742228 0.5291078247236031 -0.5291078247236031 0.8485546003742228 289 289)">
    <text style="fill:rgb(128,128,128);stroke:none;font-family:&quot;Arial&quot;;font-size:13px;" x="-3.5" y="-159">_</text>
  </g>
  <g transform="matrix(0.8208944140581528 0.5710799952442057 -0.5710799952442057 0.8208944140581528 289 289)">
    <text style="fill:rgb(128,128,128);stroke:none;font-family:&quot;Arial&quot;;font-size:13px;" x="-3.5" y="-159">2</text>
  </g>
  <g transform="matrix(0.7911600335979458 0.6116091899549067 -0.6116091899549067 0.7911600335979458 289 289)">
    <text style="fill:rgb(128,128,128);stroke:none;font-family:&quot;Arial&quot;;font-size:13px;" x="-3.5" y="-159">4</text>
  </g>
  <g transform="matrix(0.755331576826989 0.6553428179571776 -0.6553428179571776 0.755331576826989 289 289)">
    <text style="fill:rgb(128,128,128);stroke:none;font-family:&quot;Arial&quot;;font-size:13px;" x="-4.5" y="-159">H</text>
  </g>
  <g transform="matrix(0.7127068683803283 0.7014619873973966 -0.7014619873973966 0.7127068683803283 289 289)">
    <text style="fill:rgb(128,128,128);stroke:none;font-family:&quot;Arial&quot;;font-size:13px;" x="-4.5" y="-159">R</text>
  </g>
  <g transform="matrix(0.6719259126921017 0.7406183685629774 -0.7406183685629774 0.6719259126921017 289 289)">
    <text style="fill:rgb(128,128,128);stroke:none;font-family:&quot;Arial&quot;;font-size:13px;" x="-3.5" y="-159">_</text>
  </g>
  <g transform="matrix(0.6289972744757082 0.7774075049175501 -0.7774075049175501 0.6289972744757082 289 289)">
    <text style="fill:rgb(128,128,128);stroke:none;font-family:&quot;Arial&quot;;font-size:13px;" x="-4.5" y="-159">D</text>
  </g>
  <g transform="matrix(0.5789598015457819 0.8153560867461951 -0.8153560867461951 0.5789598015457819 289 289)">
    <text style="fill:rgb(128,128,128);stroke:none;font-family:&quot;Arial&quot;;font-size:13px;" x="-4.5" y="-159">N</text>
  </g>
  <g transform="matrix(-0.846598435135641 -0.5322321764285619 0.5322321764285619 -0.846598435135641 289 289)">
    <rect height="19" style="fill:rgb(255,255,255);stroke:none;" width="28" x="-13" y="-190"/>
  </g>
  <g transform="matrix(-0.8065270019099516 -0.5911972557363108 0.5911972557363108 -0.8065270019099516 289 289)">
    <rect height="19" style="fill:rgb(255,255,255);stroke:none;" width="27" x="-13" y="-190"/>
  </g>
  <g transform="matrix(-0.7641932346369434 -0.6449873643220659 0.6449873643220659 -0.7641932346369434 289 289)">
    <rect height="19" style="fill:rgb(255,255,255);stroke:none;" width="27" x="-13" y="-190"/>
  </g>
  <g transform="matrix(-0.72222581378857 -0.6916573384974946 0.6916573384974946 -0.72222581378857 289 289)">
    <rect height="19" style="fill:rgb(255,255,255);stroke:none;" width="25" x="-12" y="-190"/>
  </g>
  <g transform="matrix(-0.6774132920290566 -0.7356026317125002 0.7356026317125002 -0.6774132920290566 289 289)">
    <rect height="19" style="fill:rgb(255,255,255);stroke:none;" width="27" x="-13" y="-190"/>
  </g>
  <g transform="matrix(-0.6277197882853377 -0.7784393793963733 0.7784393793963733 -0.6277197882853377 289 289)">
    <rect height="19" style="fill:rgb(255,255,255);stroke:none;" width="26" x="-12" y="-190"/>
  </g>
  <g transform="matrix(-0.5822876391332759 -0.8129828444146875 0.8129828444146875 -0.5822876391332759 289 289)">
    <rect height="19" style="fill:rgb(255,255,255);stroke:none;" width="24" x="-11" y="-190"/>
  </g>
  <g transform="matrix(-0.5349587863148135 -0.8448781550878101 0.8448781550878101 -0.5349587863148135 289 289)">
    <rect height="19" style="fill:rgb(255,255,255);stroke:none;" width="26" x="-12" y="-190"/>
  </g>
  <g transform="matrix(-0.47840636740140774 -0.8781385697199442 0.8781385697199442 -0.47840636740140774 289 289)">
    <rect height="19" style="fill:rgb(255,255,255);stroke:none;" width="27" x="-13" y="-190"/>
  </g>
  <g transform="matrix(-0.41721142893098895 -0.9088094539392525 0.9088094539392525 -0.41721142893098895 289 289)">
    <rect height="19" style="fill:rgb(255,255,255);stroke:none;" width="27" x="-13" y="-190"/>
  </g>
  <g transform="matrix(-0.846598435135641 -0.5322321764285619 0.5322321764285619 -0.846598435135641 289 289)">
    <text style="fill:rgb(128,128,128);stroke:none;font-family:&quot;Arial&quot;;font-size:16px;" x="-6.5" y="-175">M</text>
  </g>
  <g transform="matrix(-0.8065270019099516 -0.5911972557363108 0.5911972557363108 -0.8065270019099516 289 289)">
    <text style="fill:rgb(128,128,128);stroke:none;font-family:&quot;Arial&quot;;font-size:16px;" x="-6" y="-175">O</text>
  </g>
  <g transform="matrix(-0.7641932346369434 -0.6449873643220659 0.6449873643220659 -0.7641932346369434 289 289)">
    <text style="fill:rgb(128,128,128);stroke:none;font-family:&quot;Arial&quot;;font-size:16px;" x="-6" y="-175">O</text>
  </g>
  <g transform="matrix(-0.72222581378857 -0.6916573384974946 0.6916573384974946 -0.72222581378857 289 289)">
    <text style="fill:rgb(128,128,128);stroke:none;font-family:&quot;Arial&quot;;font-size:16px;" x="-5" y="-175">T</text>
  </g>
  <g transform="matrix(-0.6774132920290566 -0.7356026317125002 0.7356026317125002 -0.6774132920290566 289 289)">
    <text style="fill:rgb(128,128,128);stroke:none;font-family:&quot;Arial&quot;;font-size:16px;" x="-6" y="-175">H</text>
  </g>
  <g transform="matrix(-0.6277197882853377 -0.7784393793963733 0.7784393793963733 -0.6277197882853377 289 289)">
    <text style="fill:rgb(128,128,128);stroke:none;font-family:&quot;Arial&quot;;font-size:16px;" x="-5.5" y="-175">A</text>
  </g>
  <g transform="matrix(-0.5822876391332759 -0.8129828444146875 0.8129828444146875 -0.5822876391332759 289 289)">
    <text style="fill:rgb(128,128,128);stroke:none;font-family:&quot;Arial&quot;;font-size:16px;" x="-4.5" y="-175">_</text>
  </g>
  <g transform="matrix(-0.5349587863148135 -0.8448781550878101 0.8448781550878101 -0.5349587863148135 289 289)">
    <text style="fill:rgb(128,128,128);stroke:none;font-family:&quot;Arial&quot;;font-size:16px;" x="-5.5" y="-175">P</text>
  </g>
  <g transform="matrix(-0.47840636740140774 -0.8781385697199442 0.8781385697199442 -0.47840636740140774 289 289)">
    <text style="fill:rgb(128,128,128);stroke:none;font-family:&quot;Arial&quot;;font-size:16px;" x="-6" y="-175">G</text>
  </g>
  <g transform="matrix(-0.41721142893098895 -0.9088094539392525 0.9088094539392525 -0.41721142893098895 289 289)">
    <text style="fill:rgb(128,128,128);stroke:none;font-family:&quot;Arial&quot;;font-size:16px;" x="-6" y="-175">C</text>
  </g>
  <g transform="matrix(-0.5925354993063394 -0.8055443389794177 0.8055443389794177 -0.5925354993063394 289 289)">
    <rect height="33" style="fill:rgb(255,255,255);stroke:none;" width="45" x="-22" y="-220"/>
  </g>
  <g transform="matrix(-0.5046041189632414 -0.8633508459052617 0.8633508459052617 -0.5046041189632414 289 289)">
    <rect height="33" style="fill:rgb(255,255,255);stroke:none;" width="46" x="-23" y="-220"/>
  </g>
  <g transform="matrix(-0.40876076153961993 -0.9126415724837161 0.9126415724837161 -0.40876076153961993 289 289)">
    <rect height="33" style="fill:rgb(255,255,255);stroke:none;" width="46" x="-23" y="-220"/>
  </g>
  <g transform="matrix(-0.3154366901931318 -0.9489466236201076 0.9489466236201076 -0.3154366901931318 289 289)">
    <rect height="33" style="fill:rgb(255,255,255);stroke:none;" width="43" x="-21" y="-220"/>
  </g>
  <g transform="matrix(-0.21397010560955168 -0.9768402089929741 0.9768402089929741 -0.21397010560955168 289 289)">
    <rect height="33" style="fill:rgb(255,255,255);stroke:none;" width="48" x="-24" y="-220"/>
  </g>
  <g transform="matrix(-0.10253720236147207 -0.9947291702427764 0.9947291702427764 -0.10253720236147207 289 289)">
    <rect height="33" style="fill:rgb(255,255,255);stroke:none;" width="46" x="-23" y="-220"/>
  </g>
  <g transform="matrix(-0.0050909158588408445 -0.9999870412038939 0.9999870412038939 -0.0050909158588408445 289 289)">
    <rect height="33" style="fill:rgb(255,255,255);stroke:none;" width="42" x="-21" y="-220"/>
  </g>
  <g transform="matrix(0.08986101384395655 -0.9959543153131756 0.9959543153131756 0.08986101384395655 289 289)">
    <rect height="33" style="fill:rgb(255,255,255);stroke:none;" width="45" x="-22" y="-220"/>
  </g>
  <g transform="matrix(0.1940233671710659 -0.9809969077380426 0.9809969077380426 0.1940233671710659 289 289)">
    <rect height="33" style="fill:rgb(255,255,255);stroke:none;" width="46" x="-23" y="-220"/>
  </g>
  <g transform="matrix(0.2690705473122268 -0.9631204704340464 0.9631204704340464 0.2690705473122268 289 289)">
    <rect height="33" style="fill:rgb(255,255,255);stroke:none;" width="34" x="-17" y="-220"/>
  </g>
  <g transform="matrix(0.3401076888097277 -0.9403864950181416 0.9403864950181416 0.3401076888097277 289 289)">
    <rect height="33" style="fill:rgb(255,255,255);stroke:none;" width="45" x="-22" y="-220"/>
  </g>
  <g transform="matrix(0.4416220282237452 -0.8972011949320763 0.8972011949320763 0.4416220282237452 289 289)">
    <rect height="33" style="fill:rgb(255,255,255);stroke:none;" width="48" x="-24" y="-220"/>
  </g>
  <g transform="matrix(0.5441801728523501 -0.8389683781134938 0.8389683781134938 0.5441801728523501 289 289)">
    <rect height="33" style="fill:rgb(255,255,255);stroke:none;" width="48" x="-24" y="-220"/>
  </g>
  <g transform="matrix(0.6332814750681471 -0.7739215550270658 0.7739215550270658 0.6332814750681471 289 289)">
    <rect height="33" style="fill:rgb(255,255,255);stroke:none;" width="45" x="-22" y="-220"/>
  </g>
  <g transform="matrix(0.7111027197880961 -0.7030881323916458 0.7030881323916458 0.7111027197880961 289 289)">
    <rect height="33" style="fill:rgb(255,255,255);stroke:none;" width="46" x="-23" y="-220"/>
  </g>
  <g transform="matrix(0.7810495543952091 -0.6244690493363505 0.6244690493363505 0.7810495543952091 289 289)">
    <rect height="33" style="fill:rgb(255,255,255);stroke:none;" width="45" x="-22" y="-220"/>
  </g>
  <g transform="matrix(0.8409706490748879 -0.5410807401807624 0.5410807401807624 0.8409706490748879 289 289)">
    <rect height="33" style="fill:rgb(255,255,255);stroke:none;" width="45" x="-22" y="-220"/>
  </g>
  <g transform="matrix(0.8789605545282605 -0.4768944784576278 0.4768944784576278 0.8789605545282605 289 289)">
    <rect height="33" style="fill:rgb(255,255,255);stroke:none;" width="34" x="-17" y="-220"/>
  </g>
  <g transform="matrix(0.9120607065131013 -0.4100552007167114 0.4100552007167114 0.9120607065131013 289 289)">
    <rect height="33" style="fill:rgb(255,255,255);stroke:none;" width="45" x="-22" y="-220"/>
  </g>
  <g transform="matrix(0.9468683897347622 -0.3216212874190677 0.3216212874190677 0.9468683897347622 289 289)">
    <rect height="33" style="fill:rgb(255,255,255);stroke:none;" width="42" x="-21" y="-220"/>
  </g>
  <g transform="matrix(0.9713294989897834 -0.2377372591586275 0.2377372591586275 0.9713294989897834 289 289)">
    <rect height="33" style="fill:rgb(255,255,255);stroke:none;" width="42" x="-21" y="-220"/>
  </g>
  <g transform="matrix(-0.5925354993063394 -0.8055443389794177 0.8055443389794177 -0.5925354993063394 289 289)">
    <text style="fill:rgb(128,128,128);stroke:none;font-family:&quot;Arial&quot;;font-size:28px;" x="-9.5" y="-194">B</text>
  </g>
  <g transform="matrix(-0.5046041189632414 -0.8633508459052617 0.8633508459052617 -0.5046041189632414 289 289)">
    <text style="fill:rgb(128,128,128);stroke:none;font-family:&quot;Arial&quot;;font-size:28px;" x="-10" y="-194">U</text>
  </g>
  <g transform="matrix(-0.40876076153961993 -0.9126415724837161 0.9126415724837161 -0.40876076153961993 289 289)">
    <text style="fill:rgb(128,128,128);stroke:none;font-family:&quot;Arial&quot;;font-size:28px;" x="-10" y="-194">R</text>
  </g>
  <g transform="matrix(-0.3154366901931318 -0.9489466236201076 0.9489466236201076 -0.3154366901931318 289 289)">
    <text style="fill:rgb(128,128,128);stroke:none;font-family:&quot;Arial&quot;;font-size:28px;" x="-8.5" y="-194">T</text>
  </g>
  <g transform="matrix(-0.21397010560955168 -0.9768402089929741 0.9768402089929741 -0.21397010560955168 289 289)">
    <text style="fill:rgb(128,128,128);stroke:none;font-family:&quot;Arial&quot;;font-size:28px;" x="-11" y="-194">O</text>
  </g>
  <g transform="matrix(-0.10253720236147207 -0.9947291702427764 0.9947291702427764 -0.10253720236147207 289 289)">
    <text style="fill:rgb(128,128,128);stroke:none;font-family:&quot;Arial&quot;;font-size:28px;" x="-10" y="-194">N</text>
  </g>
  <g transform="matrix(-0.0050909158588408445 -0.9999870412038939 0.9999870412038939 -0.0050909158588408445 289 289)">
    <text style="fill:rgb(128,128,128);stroke:none;font-family:&quot;Arial&quot;;font-size:28px;" x="-8" y="-194">_</text>
  </g>
  <g transform="matrix(0.08986101384395655 -0.9959543153131756 0.9959543153131756 0.08986101384395655 289 289)">
    <text style="fill:rgb(128,128,128);stroke:none;font-family:&quot;Arial&quot;;font-size:28px;" x="-9.5" y="-194">A</text>
  </g>
  <g transform="matrix(0.1940233671710659 -0.9809969077380426 0.9809969077380426 0.1940233671710659 289 289)">
    <text style="fill:rgb(128,128,128);stroke:none;font-family:&quot;Arial&quot;;font-size:28px;" x="-10" y="-194">D</text>
  </g>
  <g transform="matrix(0.2690705473122268 -0.9631204704340464 0.9631204704340464 0.2690705473122268 289 289)">
    <text style="fill:rgb(128,128,128);stroke:none;font-family:&quot;Arial&quot;;font-size:28px;" x="-4" y="-194">I</text>
  </g>
  <g transform="matrix(0.3401076888097277 -0.9403864950181416 0.9403864950181416 0.3401076888097277 289 289)">
    <text style="fill:rgb(128,128,128);stroke:none;font-family:&quot;Arial&quot;;font-size:28px;" x="-9.5" y="-194">P</text>
  </g>
  <g transform="matrix(0.4416220282237452 -0.8972011949320763 0.8972011949320763 0.4416220282237452 289 289)">
    <text style="fill:rgb(128,128,128);stroke:none;font-family:&quot;Arial&quot;;font-size:28px;" x="-11" y="-194">O</text>
  </g>
  <g transform="matrix(0.5441801728523501 -0.8389683781134938 0.8389683781134938 0.5441801728523501 289 289)">
    <text style="fill:rgb(128,128,128);stroke:none;font-family:&quot;Arial&quot;;font-size:28px;" x="-11" y="-194">G</text>
  </g>
  <g transform="matrix(0.6332814750681471 -0.7739215550270658 0.7739215550270658 0.6332814750681471 289 289)">
    <text style="fill:rgb(128,128,128);stroke:none;font-family:&quot;Arial&quot;;font-size:28px;" x="-9.5" y="-194">E</text>
  </g>
  <g transform="matrix(0.7111027197880961 -0.7030881323916458 0.7030881323916458 0.7111027197880961 289 289)">
    <text style="fill:rgb(128,128,128);stroke:none;font-family:&quot;Arial&quot;;font-size:28px;" x="-10" y="-194">N</text>
  </g>
  <g transform="matrix(0.7810495543952091 -0.6244690493363505 0.6244690493363505 0.7810495543952091 289 289)">
    <text style="fill:rgb(128,128,128);stroke:none;font-family:&quot;Arial&quot;;font-size:28px;" x="-9.5" y="-194">E</text>
  </g>
  <g transform="matrix(0.8409706490748879 -0.5410807401807624 0.5410807401807624 0.8409706490748879 289 289)">
    <text style="fill:rgb(128,128,128);stroke:none;font-family:&quot;Arial&quot;;font-size:28px;" x="-9.5" y="-194">S</text>
  </g>
  <g transform="matrix(0.8789605545282605 -0.4768944784576278 0.4768944784576278 0.8789605545282605 289 289)">
    <text style="fill:rgb(128,128,128);stroke:none;font-family:&quot;Arial&quot;;font-size:28px;" x="-4" y="-194">I</text>
  </g>
  <g transform="matrix(0.9120607065131013 -0.4100552007167114 0.4100552007167114 0.9120607065131013 289 289)">
    <text style="fill:rgb(128,128,128);stroke:none;font-family:&quot;Arial&quot;;font-size:28px;" x="-9.5" y="-194">S</text>
  </g>
  <g transform="matrix(0.9468683897347622 -0.3216212874190677 0.3216212874190677 0.9468683897347622 289 289)">
    <text style="fill:rgb(128,128,128);stroke:none;font-family:&quot;Arial&quot;;font-size:28px;" x="-8" y="-194">_</text>
  </g>
  <g transform="matrix(0.9713294989897834 -0.2377372591586275 0.2377372591586275 0.9713294989897834 289 289)">
    <text style="fill:rgb(128,128,128);stroke:none;font-family:&quot;Arial&quot;;font-size:28px;" x="-8" y="-194">5</text>
  </g>
  <g transform="matrix(0.1524058052880986 -0.9883180007034609 0.9883180007034609 0.1524058052880986 289 289)">
    <rect height="36" style="fill:rgb(255,255,255);stroke:none;" width="48" x="-24" y="-255"/>
  </g>
  <g transform="matrix(0.23643460703340283 -0.9716474034324182 0.9716474034324182 0.23643460703340283 289 289)">
    <rect height="36" style="fill:rgb(255,255,255);stroke:none;" width="45" x="-22" y="-255"/>
  </g>
  <g transform="matrix(0.3187282746997383 -0.9478461303961356 0.9478461303961356 0.3187282746997383 289 289)">
    <rect height="36" style="fill:rgb(255,255,255);stroke:none;" width="48" x="-24" y="-255"/>
  </g>
  <g transform="matrix(0.3986828757704451 -0.917088853147506 0.917088853147506 0.3986828757704451 289 289)">
    <rect height="36" style="fill:rgb(255,255,255);stroke:none;" width="45" x="-22" y="-255"/>
  </g>
  <g transform="matrix(0.4814678141137659 -0.8764637721962684 0.8764637721962684 0.4814678141137659 289 289)">
    <rect height="36" style="fill:rgb(255,255,255);stroke:none;" width="51" x="-25" y="-255"/>
  </g>
  <g transform="matrix(0.5691612523911697 -0.8222259231966086 0.8222259231966086 0.5691612523911697 289 289)">
    <rect height="36" style="fill:rgb(255,255,255);stroke:none;" width="50" x="-25" y="-255"/>
  </g>
  <g transform="matrix(0.6458224047841028 -0.7634876695002208 0.7634876695002208 0.6458224047841028 289 289)">
    <rect height="36" style="fill:rgb(255,255,255);stroke:none;" width="48" x="-24" y="-255"/>
  </g>
  <g transform="matrix(0.7087979265391423 -0.7054115815138087 0.7054115815138087 0.7087979265391423 289 289)">
    <rect height="36" style="fill:rgb(255,255,255);stroke:none;" width="45" x="-22" y="-255"/>
  </g>
  <g transform="matrix(0.7665717586901438 -0.6421586554572787 0.6421586554572787 0.7665717586901438 289 289)">
    <rect height="36" style="fill:rgb(255,255,255);stroke:none;" width="48" x="-24" y="-255"/>
  </g>
  <g transform="matrix(0.8187199136225376 -0.5741930886364834 0.5741930886364834 0.8187199136225376 289 289)">
    <rect height="36" style="fill:rgb(255,255,255);stroke:none;" width="45" x="-22" y="-255"/>
  </g>
  <g transform="matrix(0.8626552956348078 -0.5057922902864597 0.5057922902864597 0.8626552956348078 289 289)">
    <rect height="36" style="fill:rgb(255,255,255);stroke:none;" width="46" x="-23" y="-255"/>
  </g>
  <g transform="matrix(0.9055798024823074 -0.4241759320566232 0.4241759320566232 0.9055798024823074 289 289)">
    <rect height="36" style="fill:rgb(255,255,255);stroke:none;" width="50" x="-25" y="-255"/>
  </g>
  <g transform="matrix(0.9422744240210756 -0.33484161903167015 0.33484161903167015 0.9422744240210756 289 289)">
    <rect height="36" style="fill:rgb(255,255,255);stroke:none;" width="48" x="-24" y="-255"/>
  </g>
  <g transform="matrix(0.9623018779148942 -0.27198363142194426 0.27198363142194426 0.9623018779148942 289 289)">
    <rect height="36" style="fill:rgb(255,255,255);stroke:none;" width="36" x="-18" y="-255"/>
  </g>
  <g transform="matrix(0.9803608274537576 -0.1972121902778416 0.1972121902778416 0.9803608274537576 289 289)">
    <rect height="36" style="fill:rgb(255,255,255);stroke:none;" width="53" x="-26" y="-255"/>
  </g>
  <g transform="matrix(0.9954569948808549 -0.09521224366003316 0.09521224366003316 0.9954569948808549 289 289)">
    <rect height="36" style="fill:rgb(255,255,255);stroke:none;" width="48" x="-24" y="-255"/>
  </g>
  <g transform="matrix(0.9999992088799413 0.0012578710154467006 -0.0012578710154467006 0.9999992088799413 289 289)">
    <rect height="36" style="fill:rgb(255,255,255);stroke:none;" width="50" x="-25" y="-255"/>
  </g>
  <g transform="matrix(0.9952143155243816 0.09771625338364552 -0.09771625338364552 0.9952143155243816 289 289)">
    <rect height="36" style="fill:rgb(255,255,255);stroke:none;" width="48" x="-24" y="-255"/>
  </g>
  <g transform="matrix(0.983199175524589 0.18253597247602596 -0.18253597247602596 0.983199175524589 289 289)">
    <rect height="36" style="fill:rgb(255,255,255);stroke:none;" width="45" x="-22" y="-255"/>
  </g>
  <g transform="matrix(0.9627965293049747 0.27022739157660336 -0.27022739157660336 0.9627965293049747 289 289)">
    <rect height="36" style="fill:rgb(255,255,255);stroke:none;" width="50" x="-25" y="-255"/>
  </g>
  <g transform="matrix(0.9414140535893446 0.33725299065312764 -0.33725299065312764 0.9414140535893446 289 289)">
    <rect height="36" style="fill:rgb(255,255,255);stroke:none;" width="36" x="-18" y="-255"/>
  </g>
  <g transform="matrix(0.9171284861759623 0.398591695654322 -0.398591695654322 0.9171284861759623 289 289)">
    <rect height="36" style="fill:rgb(255,255,255);stroke:none;" width="48" x="-24" y="-255"/>
  </g>
  <g transform="matrix(0.8765116360098656 0.4813806725859575 -0.4813806725859575 0.8765116360098656 289 289)">
    <rect height="36" style="fill:rgb(255,255,255);stroke:none;" width="48" x="-24" y="-255"/>
  </g>
  <g transform="matrix(0.828441155962849 0.5600761118874279 -0.5600761118874279 0.828441155962849 289 289)">
    <rect height="36" style="fill:rgb(255,255,255);stroke:none;" width="48" x="-24" y="-255"/>
  </g>
  <g transform="matrix(0.7733258250536366 0.6340088077504226 -0.6340088077504226 0.7733258250536366 289 289)">
    <rect height="36" style="fill:rgb(255,255,255);stroke:none;" width="48" x="-24" y="-255"/>
  </g>
  <g transform="matrix(0.7116343299037 0.7025500555138487 -0.7025500555138487 0.7116343299037 289 289)">
    <rect height="36" style="fill:rgb(255,255,255);stroke:none;" width="48" x="-24" y="-255"/>
  </g>
  <g transform="matrix(0.6488933122477076 0.7608794052411978 -0.7608794052411978 0.6488933122477076 289 289)">
    <rect height="36" style="fill:rgb(255,255,255);stroke:none;" width="45" x="-22" y="-255"/>
  </g>
  <g transform="matrix(0.6025781033217973 0.7980599159192907 -0.7980599159192907 0.6025781033217973 289 289)">
    <rect height="36" style="fill:rgb(255,255,255);stroke:none;" width="36" x="-18" y="-255"/>
  </g>
  <g transform="matrix(0.544975122368606 0.8384522144996236 -0.8384522144996236 0.544975122368606 289 289)">
    <rect height="36" style="fill:rgb(255,255,255);stroke:none;" width="50" x="-25" y="-255"/>
  </g>
  <g transform="matrix(0.4576785344894572 0.8891177419597377 -0.8891177419597377 0.4576785344894572 289 289)">
    <rect height="36" style="fill:rgb(255,255,255);stroke:none;" width="50" x="-25" y="-255"/>
  </g>
  <g transform="matrix(0.3940318650396922 0.9190967790898529 -0.9190967790898529 0.3940318650396922 289 289)">
    <rect height="36" style="fill:rgb(255,255,255);stroke:none;" width="36" x="-18" y="-255"/>
  </g>
  <g transform="matrix(0.33257330236830773 0.943077408568267 -0.943077408568267 0.33257330236830773 289 289)">
    <rect height="36" style="fill:rgb(255,255,255);stroke:none;" width="48" x="-24" y="-255"/>
  </g>
  <g transform="matrix(0.26966730568447755 0.9629535524857232 -0.9629535524857232 0.26966730568447755 289 289)">
    <rect height="36" style="fill:rgb(255,255,255);stroke:none;" width="36" x="-18" y="-255"/>
  </g>
  <g transform="matrix(0.20558765607206672 0.9786387053815078 -0.9786387053815078 0.20558765607206672 289 289)">
    <rect height="36" style="fill:rgb(255,255,255);stroke:none;" width="48" x="-24" y="-255"/>
  </g>
  <g transform="matrix(0.1102251642703866 0.9939066420753844 -0.9939066420753844 0.1102251642703866 289 289)">
    <rect height="36" style="fill:rgb(255,255,255);stroke:none;" width="50" x="-25" y="-255"/>
  </g>
  <g transform="matrix(0.018200138682495103 0.9998343637582867 -0.9998343637582867 0.018200138682495103 289 289)">
    <rect height="36" style="fill:rgb(255,255,255);stroke:none;" width="46" x="-23" y="-255"/>
  </g>
  <g transform="matrix(-0.0630750375909006 0.9980087873525496 -0.9980087873525496 -0.0630750375909006 289 289)">
    <rect height="36" style="fill:rgb(255,255,255);stroke:none;" width="45" x="-22" y="-255"/>
  </g>
  <g transform="matrix(-0.15258264628193569 0.9882907143414845 -0.9882907143414845 -0.15258264628193569 289 289)">
    <rect height="36" style="fill:rgb(255,255,255);stroke:none;" width="50" x="-25" y="-255"/>
  </g>
  <g transform="matrix(-0.2514305233527811 0.9678753493743637 -0.9678753493743637 -0.2514305233527811 289 289)">
    <rect height="36" style="fill:rgb(255,255,255);stroke:none;" width="50" x="-25" y="-255"/>
  </g>
  <g transform="matrix(0.1524058052880986 -0.9883180007034609 0.9883180007034609 0.1524058052880986 289 289)">
    <text style="fill:rgb(128,128,128);stroke:none;font-family:&quot;Arial&quot;;font-size:30px;" x="-10" y="-227">B</text>
  </g>
  <g transform="matrix(0.23643460703340283 -0.9716474034324182 0.9716474034324182 0.23643460703340283 289 289)">
    <text style="fill:rgb(128,128,128);stroke:none;font-family:&quot;Arial&quot;;font-size:30px;" x="-8.5" y="-227">L</text>
  </g>
  <g transform="matrix(0.3187282746997383 -0.9478461303961356 0.9478461303961356 0.3187282746997383 289 289)">
    <text style="fill:rgb(128,128,128);stroke:none;font-family:&quot;Arial&quot;;font-size:30px;" x="-10" y="-227">A</text>
  </g>
  <g transform="matrix(0.3986828757704451 -0.917088853147506 0.917088853147506 0.3986828757704451 289 289)">
    <text style="fill:rgb(128,128,128);stroke:none;font-family:&quot;Arial&quot;;font-size:30px;" x="-8.5" y="-227">L</text>
  </g>
  <g transform="matrix(0.4814678141137659 -0.8764637721962684 0.8764637721962684 0.4814678141137659 289 289)">
    <text style="fill:rgb(128,128,128);stroke:none;font-family:&quot;Arial&quot;;font-size:30px;" x="-11.5" y="-227">O</text>
  </g>
  <g transform="matrix(0.5691612523911697 -0.8222259231966086 0.8222259231966086 0.5691612523911697 289 289)">
    <text style="fill:rgb(128,128,128);stroke:none;font-family:&quot;Arial&quot;;font-size:30px;" x="-11" y="-227">C</text>
  </g>
  <g transform="matrix(0.6458224047841028 -0.7634876695002208 0.7634876695002208 0.6458224047841028 289 289)">
    <text style="fill:rgb(128,128,128);stroke:none;font-family:&quot;Arial&quot;;font-size:30px;" x="-10" y="-227">K</text>
  </g>
  <g transform="matrix(0.7087979265391423 -0.7054115815138087 0.7054115815138087 0.7087979265391423 289 289)">
    <text style="fill:rgb(128,128,128);stroke:none;font-family:&quot;Arial&quot;;font-size:30px;" x="-8.5" y="-227">_</text>
  </g>
  <g transform="matrix(0.7665717586901438 -0.6421586554572787 0.6421586554572787 0.7665717586901438 289 289)">
    <text style="fill:rgb(128,128,128);stroke:none;font-family:&quot;Arial&quot;;font-size:30px;" x="-10" y="-227">A</text>
  </g>
  <g transform="matrix(0.8187199136225376 -0.5741930886364834 0.5741930886364834 0.8187199136225376 289 289)">
    <text style="fill:rgb(128,128,128);stroke:none;font-family:&quot;Arial&quot;;font-size:30px;" x="-8.5" y="-227">L</text>
  </g>
  <g transform="matrix(0.8626552956348078 -0.5057922902864597 0.5057922902864597 0.8626552956348078 289 289)">
    <text style="fill:rgb(128,128,128);stroke:none;font-family:&quot;Arial&quot;;font-size:30px;" x="-9" y="-227">Z</text>
  </g>
  <g transform="matrix(0.9055798024823074 -0.4241759320566232 0.4241759320566232 0.9055798024823074 289 289)">
    <text style="fill:rgb(128,128,128);stroke:none;font-family:&quot;Arial&quot;;font-size:30px;" x="-11" y="-227">H</text>
  </g>
  <g transform="matrix(0.9422744240210756 -0.33484161903167015 0.33484161903167015 0.9422744240210756 289 289)">
    <text style="fill:rgb(128,128,128);stroke:none;font-family:&quot;Arial&quot;;font-size:30px;" x="-10" y="-227">E</text>
  </g>
  <g transform="matrix(0.9623018779148942 -0.27198363142194426 0.27198363142194426 0.9623018779148942 289 289)">
    <text style="fill:rgb(128,128,128);stroke:none;font-family:&quot;Arial&quot;;font-size:30px;" x="-4" y="-227">I</text>
  </g>
  <g transform="matrix(0.9803608274537576 -0.1972121902778416 0.1972121902778416 0.9803608274537576 289 289)">
    <text style="fill:rgb(128,128,128);stroke:none;font-family:&quot;Arial&quot;;font-size:30px;" x="-12.5" y="-227">M</text>
  </g>
  <g transform="matrix(0.9954569948808549 -0.09521224366003316 0.09521224366003316 0.9954569948808549 289 289)">
    <text style="fill:rgb(128,128,128);stroke:none;font-family:&quot;Arial&quot;;font-size:30px;" x="-10" y="-227">E</text>
  </g>
  <g transform="matrix(0.9999992088799413 0.0012578710154467006 -0.0012578710154467006 0.9999992088799413 289 289)">
    <text style="fill:rgb(128,128,128);stroke:none;font-family:&quot;Arial&quot;;font-size:30px;" x="-11" y="-227">R</text>
  </g>
  <g transform="matrix(0.9952143155243816 0.09771625338364552 -0.09771625338364552 0.9952143155243816 289 289)">
    <text style="fill:rgb(128,128,128);stroke:none;font-family:&quot;Arial&quot;;font-size:30px;" x="-10" y="-227">S</text>
  </g>
  <g transform="matrix(0.983199175524589 0.18253597247602596 -0.18253597247602596 0.983199175524589 289 289)">
    <text style="fill:rgb(128,128,128);stroke:none;font-family:&quot;Arial&quot;;font-size:30px;" x="-8.5" y="-227">_</text>
  </g>
  <g transform="matrix(0.9627965293049747 0.27022739157660336 -0.27022739157660336 0.9627965293049747 289 289)">
    <text style="fill:rgb(128,128,128);stroke:none;font-family:&quot;Arial&quot;;font-size:30px;" x="-11" y="-227">D</text>
  </g>
  <g transform="matrix(0.9414140535893446 0.33725299065312764 -0.33725299065312764 0.9414140535893446 289 289)">
    <text style="fill:rgb(128,128,128);stroke:none;font-family:&quot;Arial&quot;;font-size:30px;" x="-4" y="-227">I</text>
  </g>
  <g transform="matrix(0.9171284861759623 0.398591695654322 -0.398591695654322 0.9171284861759623 289 289)">
    <text style="fill:rgb(128,128,128);stroke:none;font-family:&quot;Arial&quot;;font-size:30px;" x="-10" y="-227">S</text>
  </g>
  <g transform="matrix(0.8765116360098656 0.4813806725859575 -0.4813806725859575 0.8765116360098656 289 289)">
    <text style="fill:rgb(128,128,128);stroke:none;font-family:&quot;Arial&quot;;font-size:30px;" x="-10" y="-227">E</text>
  </g>
  <g transform="matrix(0.828441155962849 0.5600761118874279 -0.5600761118874279 0.828441155962849 289 289)">
    <text style="fill:rgb(128,128,128);stroke:none;font-family:&quot;Arial&quot;;font-size:30px;" x="-10" y="-227">A</text>
  </g>
  <g transform="matrix(0.7733258250536366 0.6340088077504226 -0.6340088077504226 0.7733258250536366 289 289)">
    <text style="fill:rgb(128,128,128);stroke:none;font-family:&quot;Arial&quot;;font-size:30px;" x="-10" y="-227">S</text>
  </g>
  <g transform="matrix(0.7116343299037 0.7025500555138487 -0.7025500555138487 0.7116343299037 289 289)">
    <text style="fill:rgb(128,128,128);stroke:none;font-family:&quot;Arial&quot;;font-size:30px;" x="-10" y="-227">E</text>
  </g>
  <g transform="matrix(0.6488933122477076 0.7608794052411978 -0.7608794052411978 0.6488933122477076 289 289)">
    <text style="fill:rgb(128,128,128);stroke:none;font-family:&quot;Arial&quot;;font-size:30px;" x="-8.5" y="-227">_</text>
  </g>
  <g transform="matrix(0.6025781033217973 0.7980599159192907 -0.7980599159192907 0.6025781033217973 289 289)">
    <text style="fill:rgb(128,128,128);stroke:none;font-family:&quot;Arial&quot;;font-size:30px;" x="-4" y="-227">I</text>
  </g>
  <g transform="matrix(0.544975122368606 0.8384522144996236 -0.8384522144996236 0.544975122368606 289 289)">
    <text style="fill:rgb(128,128,128);stroke:none;font-family:&quot;Arial&quot;;font-size:30px;" x="-11" y="-227">N</text>
  </g>
  <g transform="matrix(0.4576785344894572 0.8891177419597377 -0.8891177419597377 0.4576785344894572 289 289)">
    <text style="fill:rgb(128,128,128);stroke:none;font-family:&quot;Arial&quot;;font-size:30px;" x="-11" y="-227">C</text>
  </g>
  <g transform="matrix(0.3940318650396922 0.9190967790898529 -0.9190967790898529 0.3940318650396922 289 289)">
    <text style="fill:rgb(128,128,128);stroke:none;font-family:&quot;Arial&quot;;font-size:30px;" x="-4" y="-227">I</text>
  </g>
  <g transform="matrix(0.33257330236830773 0.943077408568267 -0.943077408568267 0.33257330236830773 289 289)">
    <text style="fill:rgb(128,128,128);stroke:none;font-family:&quot;Arial&quot;;font-size:30px;" x="-10" y="-227">P</text>
  </g>
  <g transform="matrix(0.26966730568447755 0.9629535524857232 -0.9629535524857232 0.26966730568447755 289 289)">
    <text style="fill:rgb(128,128,128);stroke:none;font-family:&quot;Arial&quot;;font-size:30px;" x="-4" y="-227">I</text>
  </g>
  <g transform="matrix(0.20558765607206672 0.9786387053815078 -0.9786387053815078 0.20558765607206672 289 289)">
    <text style="fill:rgb(128,128,128);stroke:none;font-family:&quot;Arial&quot;;font-size:30px;" x="-10" y="-227">E</text>
  </g>
  <g transform="matrix(0.1102251642703866 0.9939066420753844 -0.9939066420753844 0.1102251642703866 289 289)">
    <text style="fill:rgb(128,128,128);stroke:none;font-family:&quot;Arial&quot;;font-size:30px;" x="-11" y="-227">N</text>
  </g>
  <g transform="matrix(0.018200138682495103 0.9998343637582867 -0.9998343637582867 0.018200138682495103 289 289)">
    <text style="fill:rgb(128,128,128);stroke:none;font-family:&quot;Arial&quot;;font-size:30px;" x="-9" y="-227">T</text>
  </g>
  <g transform="matrix(-0.0630750375909006 0.9980087873525496 -0.9980087873525496 -0.0630750375909006 289 289)">
    <text style="fill:rgb(128,128,128);stroke:none;font-family:&quot;Arial&quot;;font-size:30px;" x="-8.5" y="-227">_</text>
  </g>
  <g transform="matrix(-0.15258264628193569 0.9882907143414845 -0.9882907143414845 -0.15258264628193569 289 289)">
    <text style="fill:rgb(128,128,128);stroke:none;font-family:&quot;Arial&quot;;font-size:30px;" x="-11" y="-227">D</text>
  </g>
  <g transform="matrix(-0.2514305233527811 0.9678753493743637 -0.9678753493743637 -0.2514305233527811 289 289)">
    <text style="fill:rgb(128,128,128);stroke:none;font-family:&quot;Arial&quot;;font-size:30px;" x="-11" y="-227">N</text>
  </g>
</svg>
